# xmcd CD database file
#
# Track frame offsets:
#	150
#	14162
#	25854
#	39574
#	53559
#	70981
#	131988
#	151293
#	177871
#	193906
#	209461
#	235145
#	250130
#
# Disc length: 4259 seconds
#
# Revision: 0
# Processed by: cddbd v1.5.1PL0 Copyright (c) Steve Scherf et al.
# Submitted via: CDex 1.51
#
DISCID=ba10a10d
DTITLE=Miles Davis - Best Of Cool
DYEAR=1900
DGENRE=Jazz
TTITLE0=The Jam Session feat. Michel Legrand (keyb.) and Chuck Findley (trumpet)
TTITLE1=Blow feat. Easy Mo Bee
TTITLE2=Human Nature
TTITLE3=Portia
TTITLE4=Mystery feat. Easy Mo Bee
TTITLE5=Code M.D.
TTITLE6=Blue
TTITLE7=Claire - Lost in Madrid part V feat. Marcus Miller (from o.s.t. Siesta)
TTITLE8=Tutu
TTITLE9=That's What Happend
TTITLE10=Red
TTITLE11=Sonya feat. Easy Mo Bee
TTITLE12=Time After Time
EXTD=
EXTT0=
EXTT1=
EXTT2=
EXTT3=
EXTT4=
EXTT5=
EXTT6=
EXTT7=
EXTT8=
EXTT9=
EXTT10=
EXTT11=
EXTT12=
PLAYORDER=
